<svg xmlns="http://www.w3.org/2000/svg" viewBox="0 0 1105.61 184.23"><defs><style>.cls-1{isolation:isolate;}</style></defs><title>자산 1</title><g id="레이어_2" data-name="레이어 2"><g id="레이어_1-2" data-name="레이어 1"><g class="cls-1"><path d="M116,146h68v38.25H0V146H68V122.82h48ZM178.92,0V115H5.1V0h48V19.34h78V0ZM131.11,76.92V57.8H52.91V76.92Z"/><path d="M383.55,146v38.25H200V146h49.3V77.14h48V146ZM205.06,38.89V.64H378.45L375.9,115.38H330.43V38.89Z"/><path d="M644.5,146v38.25H460.9V146h67.79V123h48V146Zm-95-71.61v38.25H465.36V0h79V38.25h-31V74.16h36.12Zm89.89,0v38.25H557V0H639.4V38.25H605V74.16H639.4Z"/><path d="M838.08,146h68v38.25h-184V146h68V122.82h48ZM901.19,0V115H727.37V0h48V19.34h78V0Zm-48,76.92V57.8h-78V76.92Z"/><path d="M1105.61,146v38.25H922V146h49.3V77.14h48V146ZM927.11,38.89V.64h173.4L1098,115.38h-45.47V38.89Z"/></g></g></g></svg>